<svg width="269" height="109" viewBox="0 0 269 109" fill="none" xmlns="http://www.w3.org/2000/svg">
<path d="M29.8891 97.7498C41.0365 97.7498 44.729 90.4344 44.729 81.5865C44.729 72.7386 41.0365 65.4217 29.8891 65.4217C18.7417 65.4217 15.0491 72.7386 15.0491 81.5865C15.0491 90.4344 18.7417 97.7498 29.8891 97.7498ZM29.8891 55.111C50.9303 55.111 59.7782 66.3979 59.7782 81.5865C59.7782 96.7736 50.9303 108.062 29.8891 108.062C8.84791 108.062 0 96.7736 0 81.5865C0 66.3979 8.84791 55.111 29.8891 55.111Z" fill="#231F20"/>
<path d="M85.0668 77.8939H96.7009C103.39 77.8939 105.55 75.8036 105.55 71.9716C105.55 67.0937 101.718 66.1887 94.6817 66.1887H85.0668V77.8939ZM70.436 56.4344H101.16C113.284 56.4344 120.181 60.8242 120.181 69.6038C120.181 76.0127 114.956 80.4723 107.431 81.7956V81.9351C111.682 82.214 115.653 83.1887 117.324 86.3249C119.763 90.9224 120.042 101.513 122.132 106.739H106.595C104.992 101.861 105.202 94.615 103.808 91.133C102.902 88.8321 100.674 87.6468 94.8197 87.6468H85.0668V106.739H70.436V56.4344Z" fill="#231F20"/>
<path d="M169.159 72.9463C168.392 67.3726 163.865 65.4217 158.291 65.4217C148.744 65.4217 144.147 72.111 144.147 81.3076C144.147 90.2266 147.977 97.7498 157.871 97.7498C163.446 97.7498 168.532 95.7989 169.02 89.6674H184.486C183.858 104.507 171.597 108.062 156.41 108.062C141.359 108.062 129.098 100.398 129.098 81.6548C129.098 62.7751 140.803 55.111 158.778 55.111C171.597 55.111 183.998 59.6389 184.207 72.9463H169.159Z" fill="#231F20"/>
<path d="M223.083 66.1888L212.771 87.4391H233.045L223.083 66.1888ZM215.001 56.4344H232.488L258.616 106.737H242.243L237.506 96.7737H208.243L203.367 106.737H188.316L215.001 56.4344Z" fill="#231F20"/>
<path d="M262.118 61.8231C263.137 61.7918 263.373 61.3678 263.373 60.8356C263.373 60.3162 263.137 60.0501 262.274 60.0501H260.974V61.8231H262.118ZM260.974 62.9046V65.8985H259.892V58.9687H262.133C263.404 58.9687 264.72 59.313 264.72 60.8811C264.72 61.6808 264.235 62.3084 263.309 62.4976V62.5275C264.266 62.7167 264.376 63.1394 264.486 63.8921C264.579 64.5509 264.658 65.2724 264.894 65.8985H263.514C263.434 65.5071 263.326 65.0675 263.277 64.6605C263.199 64.0643 263.199 63.515 262.888 63.1863C262.62 62.9046 262.26 62.9359 261.883 62.9046H260.974ZM267.072 62.5118C267.072 59.8466 264.91 57.6667 262.227 57.6667C259.531 57.6667 257.351 59.8466 257.351 62.5118C257.351 65.2097 259.531 67.3883 262.227 67.3883C264.91 67.3883 267.072 65.2097 267.072 62.5118ZM256.316 62.5118C256.316 59.2661 258.95 56.6322 262.227 56.6322C265.49 56.6322 268.107 59.2661 268.107 62.5118C268.107 65.7889 265.49 68.4242 262.227 68.4242C258.95 68.4242 256.316 65.7889 256.316 62.5118Z" fill="#231F20"/>
<path d="M162.877 22.4771C185.113 25.0313 176.667 2.4434 175.624 0.0229626C189.578 -1.09405 204.359 38.8681 195.949 46.8722C193.686 43.1554 186.603 33.4182 173.976 32.4079C169.415 32.0436 167.756 33.3214 168.137 34.7757C168.421 35.8543 176.169 40.476 180.504 42.9249C163.029 36.6839 147.863 34.2705 134.65 33.1436C86.3846 29.0384 56.9765 52.4388 57.2881 51.8354C61.0177 44.567 91.3863 14.2695 162.877 22.4771Z" fill="#231F20"/>
</svg>
